<svg version="1.1" id="Layer_1" xmlns="http://www.w3.org/2000/svg" xmlns:xlink="http://www.w3.org/1999/xlink" x="0px" y="0px"
	 width="100%" viewBox="0 0 500 500" enable-background="new 0 0 500 500" xml:space="preserve">
<path fill="#000000" opacity="1.000000" stroke="none" 
	d="
M276.000000,501.000000 
	C184.000015,501.000000 92.500046,501.000000 1.000049,501.000000 
	C1.000033,334.333405 1.000033,167.666794 1.000016,1.000139 
	C167.666565,1.000092 334.333130,1.000092 500.999756,1.000046 
	C500.999847,167.666519 500.999847,334.333038 500.999939,500.999786 
	C426.166656,501.000000 351.333344,501.000000 276.000000,501.000000 
M104.809792,251.946503 
	C113.245064,251.908966 121.680328,251.871429 130.807022,252.375671 
	C130.877060,259.202026 130.984177,266.028290 131.008392,272.854797 
	C131.044525,283.043304 131.026138,282.806610 141.109604,283.081787 
	C145.732407,283.207916 147.129684,281.812561 147.074783,277.176361 
	C146.843933,257.683197 146.980240,238.185730 146.972672,218.689835 
	C146.968536,208.038010 146.952484,208.287338 136.419601,207.969925 
	C131.793243,207.830536 130.787277,209.490173 130.948120,213.705353 
	C131.242783,221.427383 131.032059,229.168716 131.032059,237.093094 
	C121.960915,237.093094 113.633041,237.009827 105.308319,237.135330 
	C102.115974,237.183472 100.803307,236.053574 100.898384,232.766647 
	C101.071747,226.772949 100.959175,220.770676 100.947739,214.772003 
	C100.935699,208.459457 100.539314,208.084244 94.020042,208.066055 
	C93.020271,208.063263 92.019562,208.097961 91.020836,208.066452 
	C87.160149,207.944687 83.604851,207.892319 84.935547,213.682190 
	C85.436707,215.862747 84.869476,218.287277 84.799538,220.600906 
	C84.546638,228.968155 84.064140,237.336868 84.111839,245.702499 
	C84.162392,254.566483 84.868469,263.425079 85.015961,272.290558 
	C85.202072,283.476929 85.079941,283.365265 96.731766,283.031097 
	C100.019310,282.936798 101.072617,281.811188 101.000931,278.599060 
	C100.829971,270.937866 100.982109,263.269989 100.927933,255.605347 
	C100.912834,253.469254 100.872429,251.515961 104.809792,251.946503 
M55.026974,276.556610 
	C56.032440,277.867706 56.979664,279.228912 58.055416,280.479584 
	C60.354771,283.152863 63.238445,282.962769 65.368423,280.795990 
	C67.354996,278.775116 71.259216,276.855469 67.336662,272.772888 
	C60.048836,265.187683 53.211105,257.170776 45.951382,249.557327 
	C43.247780,246.722000 43.477638,244.786499 46.054485,242.089996 
	C53.137947,234.677567 60.066319,227.113037 66.919006,219.485565 
	C70.325508,215.693939 69.951340,213.548813 65.973671,210.488754 
	C62.038101,207.461105 59.535942,210.383453 57.241077,212.811447 
	C48.857090,221.681915 40.616562,230.688339 32.351910,239.671066 
	C27.849928,244.564224 27.950649,248.428940 32.269146,252.875259 
	C39.730522,260.557526 47.067135,268.360992 55.026974,276.556610 
M165.044540,269.479187 
	C158.760178,275.997833 158.623444,276.750275 163.076508,280.309631 
	C166.523514,283.064850 169.313217,282.525177 172.845352,278.489258 
	C177.614578,273.039886 182.385162,267.591125 187.210144,262.191284 
	C190.633911,258.359558 194.268021,254.710129 197.584793,250.790283 
	C200.227661,247.666855 201.416046,244.666840 197.629807,240.945908 
	C192.102829,235.514221 187.237762,229.412033 182.041595,223.639709 
	C178.063873,219.220963 174.269333,214.575882 169.829391,210.672958 
	C168.535110,209.535172 163.958252,209.730789 163.240845,210.839249 
	C161.764984,213.119644 157.540619,215.321335 161.850998,219.508850 
	C169.274521,226.720673 175.883728,234.764435 182.977188,242.325363 
	C185.886658,245.426559 184.954132,247.645203 182.370209,250.360519 
	C176.609924,256.413788 171.109619,262.714447 165.044540,269.479187 
M406.063324,235.682480 
	C406.067810,238.181885 406.085785,240.681366 406.074249,243.180695 
	C406.040100,250.567810 406.035522,250.567795 414.286957,250.729843 
	C414.467834,249.192841 414.781403,247.610291 414.817627,246.021423 
	C414.935181,240.863602 414.508942,235.640991 415.225067,230.575226 
	C415.509247,228.564957 418.240723,226.900681 419.858002,225.078842 
	C421.586853,227.018784 424.485077,228.775116 424.823914,230.933319 
	C425.814789,237.244080 425.785156,243.715073 426.163452,250.262100 
	C428.434265,250.390778 431.214447,250.548294 433.992249,250.705688 
	C433.992249,243.300140 434.089142,236.512131 433.968811,229.727982 
	C433.802032,220.323929 424.564545,214.859039 416.310150,219.318329 
	C413.728149,220.713226 411.754791,220.724442 408.965088,219.409439 
	C406.346832,218.175262 402.786530,217.692123 400.011017,218.377655 
	C397.028290,219.114395 394.649872,219.886658 391.563843,218.481781 
	C389.555908,217.567673 386.231567,217.159363 386.205200,221.249023 
	C386.143005,230.892426 386.185242,240.536514 386.185242,250.453629 
	C387.481018,250.293961 388.539825,249.850998 389.380280,250.111786 
	C394.033447,251.555557 395.220703,249.860275 394.846100,245.248184 
	C394.453033,240.408813 394.471802,235.418091 395.271881,230.654999 
	C395.614685,228.614365 398.115814,226.412827 400.181641,225.425262 
	C401.094727,224.988770 403.924133,227.047562 404.865784,228.593506 
	C405.885773,230.268082 405.719696,232.665100 406.063324,235.682480 
M244.162613,270.503448 
	C240.046555,261.386383 235.524460,257.826111 226.728760,258.167999 
	C222.912125,258.316315 219.075073,258.331329 215.263824,258.115234 
	C211.489471,257.901276 209.925064,259.111145 210.040756,263.188812 
	C210.304642,272.488953 210.110123,281.802124 210.103119,291.109985 
	C210.100922,294.028809 210.102768,296.947632 210.102768,300.083740 
	C217.056244,300.083740 223.303848,300.760376 229.308029,299.843323 
	C233.240204,299.242767 237.729263,297.170532 240.373352,294.291931 
	C246.355148,287.779572 247.625763,279.735291 244.162613,270.503448 
M245.971664,222.504684 
	C245.953354,218.346375 246.138519,214.170166 245.775192,210.042236 
	C245.683197,208.996857 243.815735,207.295380 242.812149,207.328964 
	C241.221893,207.382233 239.111816,208.258469 238.258698,209.499420 
	C237.358871,210.808258 237.311279,212.997253 237.521225,214.725189 
	C238.574799,223.396606 240.135269,223.974136 228.503326,224.997726 
	C226.853043,225.142960 225.174438,224.936508 223.515930,225.024734 
	C220.373444,225.191849 218.906067,223.833511 218.980042,220.625626 
	C219.060516,217.135330 219.282120,213.586380 218.733566,210.177017 
	C218.541336,208.982132 216.227066,207.295410 214.916733,207.326080 
	C213.304535,207.363815 210.365082,208.931244 210.343063,209.891281 
	C210.038666,223.152908 210.137405,236.423798 210.137405,249.684067 
	C213.334579,249.982513 216.075317,250.238358 218.999634,250.511337 
	C218.999634,245.859436 219.097626,241.323441 218.963120,236.794357 
	C218.881500,234.045944 219.860489,232.841171 222.705872,232.939972 
	C226.134293,233.059021 229.572922,232.844131 233.006561,232.865311 
	C235.710022,232.881989 237.546387,233.357895 237.396759,237.048309 
	C237.226288,241.252594 238.123978,245.500198 238.580093,249.950027 
	C241.493286,250.081161 244.139252,250.200256 245.971436,250.282730 
	C245.971436,240.971863 245.971436,232.237244 245.971664,222.504684 
M332.985443,218.135757 
	C330.868103,218.722595 328.750793,219.309433 326.096954,220.044968 
	C325.974426,217.474045 325.830322,215.679428 325.813568,213.883636 
	C325.744751,206.511749 325.343658,206.198471 316.950531,207.821320 
	C316.950531,213.420319 316.957489,219.160934 316.948639,224.901535 
	C316.939514,230.850296 316.930481,236.799133 316.893372,242.747757 
	C316.846466,250.269241 317.351562,250.703033 325.565216,249.741104 
	C325.636810,248.342651 325.752228,246.885361 325.778473,245.426453 
	C325.859253,240.935806 325.496368,236.389297 326.092255,231.970551 
	C326.589691,228.281921 328.336945,224.706573 333.097748,225.118149 
	C337.457794,225.495071 338.088867,228.768585 338.078400,232.374084 
	C338.064392,237.198929 337.754639,242.073105 338.377991,246.820251 
	C338.575867,248.327240 341.181427,250.029358 343.011932,250.607224 
	C344.012726,250.923141 346.840454,249.131424 346.886292,248.194351 
	C347.179932,242.192566 347.318726,236.128922 346.775421,230.152237 
	C345.768799,219.079239 344.408630,218.032715 332.985443,218.135757 
M265.566833,218.052841 
	C257.200775,218.084167 253.069611,221.697388 253.371094,229.763474 
	C256.341278,228.952271 259.211548,228.429199 261.857727,227.354462 
	C263.639069,226.630966 265.402405,223.932205 266.643036,224.242096 
	C268.717682,224.760254 270.368042,226.977036 272.964996,229.109467 
	C267.009399,230.340515 262.551270,230.904526 258.360809,232.282455 
	C256.333496,232.949127 254.091095,234.808746 253.200455,236.714462 
	C251.116333,241.173950 251.187637,245.591476 255.506317,249.236526 
	C259.532776,252.634918 263.869202,250.551575 268.106262,250.484772 
	C269.925354,250.456116 271.852692,249.918594 273.540710,250.352295 
	C278.295929,251.574036 281.018127,249.640060 281.004700,244.643204 
	C280.993988,240.656433 280.974884,236.669708 280.959747,232.682953 
	C280.917358,221.534622 277.534241,218.124619 265.566833,218.052841 
M355.690857,229.002213 
	C358.104187,228.187668 360.987335,227.948944 362.835175,226.441315 
	C366.957153,223.078110 369.703796,223.762390 371.490814,229.454132 
	C367.137604,230.310089 362.790985,231.113937 358.467957,232.029205 
	C354.254700,232.921265 350.222260,239.028656 351.263672,242.804581 
	C353.185303,249.772018 361.301453,253.267670 367.963776,250.298767 
	C369.555969,249.589249 371.847717,249.618683 373.553162,250.152863 
	C378.302399,251.640503 380.896423,250.104187 380.914215,245.249176 
	C380.931885,240.425903 381.202637,235.569336 380.734131,230.788956 
	C380.332153,226.687531 380.270355,221.733582 375.590057,219.919968 
	C369.111481,217.409531 362.194855,216.193283 356.280334,221.153030 
	C354.299194,222.814362 350.723877,225.572586 355.690857,229.002213 
M265.936676,287.015533 
	C269.257202,286.980194 272.603638,287.171295 275.885284,286.795959 
	C277.165344,286.649597 279.415894,285.055847 279.316925,284.416565 
	C278.728943,280.617523 278.367065,276.432159 276.458313,273.262329 
	C272.545288,266.763916 265.816467,267.723206 259.487122,268.532806 
	C253.689178,269.274384 251.945648,273.747040 250.561523,278.485626 
	C248.012970,287.210693 250.838608,296.303894 257.874756,299.352203 
	C266.208832,302.962860 276.364868,301.445740 278.454865,290.803497 
	C273.610748,288.371948 270.133514,292.377716 266.000763,293.240448 
	C264.098145,293.637634 261.588470,292.014435 259.654572,290.820526 
	C259.091309,290.472809 259.343353,287.408905 259.599731,287.353943 
	C261.360931,286.976440 263.222504,287.067413 265.936676,287.015533 
M285.986359,231.368271 
	C288.427307,236.883438 293.976715,236.325974 298.492584,237.861633 
	C300.538330,238.557297 302.413635,239.754166 304.854431,240.966049 
	C300.699585,245.057083 297.226898,246.055969 294.029999,242.414444 
	C290.556427,238.457733 287.538788,239.934357 284.213898,242.198715 
	C287.875397,250.850296 299.174194,254.045990 307.730042,249.024551 
	C311.107666,247.042206 313.672363,244.354889 312.983948,240.224976 
	C312.269196,235.936813 310.089966,232.608017 305.187225,231.863571 
	C302.276855,231.421646 299.411713,230.619873 296.570496,229.822205 
	C295.722107,229.584015 294.461792,228.883163 294.384705,228.269394 
	C294.261963,227.292191 294.676880,225.893158 295.385895,225.230286 
	C297.796051,222.976974 300.624329,223.227188 302.209320,225.907883 
	C304.757629,230.217896 308.014313,229.234543 311.582458,228.298157 
	C312.523865,223.374924 310.440338,220.194138 306.139343,219.053757 
	C302.723419,218.148026 299.017365,217.961792 295.456146,218.056839 
	C288.085663,218.253571 284.443268,223.217545 285.986359,231.368271 
M280.958862,271.784485 
	C283.416260,278.751465 285.622223,285.820374 288.395111,292.659454 
	C291.816376,301.097687 292.093658,301.053497 301.455902,299.439026 
	C303.090302,294.332825 304.588684,289.094086 306.451691,283.988434 
	C308.304657,278.910339 310.524017,273.965942 312.755981,268.541870 
	C309.086700,268.541870 306.320587,268.541870 303.860229,268.541870 
	C301.453766,275.285858 299.178619,281.661896 296.903473,288.037933 
	C293.685547,282.348145 291.560120,276.845520 289.869385,271.212463 
	C288.937317,268.107025 286.786591,268.050629 284.456940,268.281586 
	C282.808411,268.445007 279.902954,267.409119 280.958862,271.784485 
z"/>
<path fill="#279BF8" opacity="1.000000" stroke="none" 
	d="
M103.858475,251.758530 
	C100.872429,251.515961 100.912834,253.469254 100.927933,255.605347 
	C100.982109,263.269989 100.829971,270.937866 101.000931,278.599060 
	C101.072617,281.811188 100.019310,282.936798 96.731766,283.031097 
	C85.079941,283.365265 85.202072,283.476929 85.015961,272.290558 
	C84.868469,263.425079 84.162392,254.566483 84.111839,245.702499 
	C84.064140,237.336868 84.546638,228.968155 84.799538,220.600906 
	C84.869476,218.287277 85.436707,215.862747 84.935547,213.682190 
	C83.604851,207.892319 87.160149,207.944687 91.020836,208.066452 
	C92.019562,208.097961 93.020271,208.063263 94.020042,208.066055 
	C100.539314,208.084244 100.935699,208.459457 100.947739,214.772003 
	C100.959175,220.770676 101.071747,226.772949 100.898384,232.766647 
	C100.803307,236.053574 102.115974,237.183472 105.308319,237.135330 
	C113.633041,237.009827 121.960915,237.093094 131.032059,237.093094 
	C131.032059,229.168716 131.242783,221.427383 130.948120,213.705353 
	C130.787277,209.490173 131.793243,207.830536 136.419601,207.969925 
	C146.952484,208.287338 146.968536,208.038010 146.972672,218.689835 
	C146.980240,238.185730 146.843933,257.683197 147.074783,277.176361 
	C147.129684,281.812561 145.732407,283.207916 141.109604,283.081787 
	C131.026138,282.806610 131.044525,283.043304 131.008392,272.854797 
	C130.984177,266.028290 130.877060,259.202026 130.098450,251.879974 
	C120.879417,251.509018 112.368950,251.633774 103.858475,251.758530 
z"/>
<path fill="#3C474E" opacity="1.000000" stroke="none" 
	d="
M54.741531,276.335114 
	C47.067135,268.360992 39.730522,260.557526 32.269146,252.875259 
	C27.950649,248.428940 27.849928,244.564224 32.351910,239.671066 
	C40.616562,230.688339 48.857090,221.681915 57.241077,212.811447 
	C59.535942,210.383453 62.038101,207.461105 65.973671,210.488754 
	C69.951340,213.548813 70.325508,215.693939 66.919006,219.485565 
	C60.066319,227.113037 53.137947,234.677567 46.054485,242.089996 
	C43.477638,244.786499 43.247780,246.722000 45.951382,249.557327 
	C53.211105,257.170776 60.048836,265.187683 67.336662,272.772888 
	C71.259216,276.855469 67.354996,278.775116 65.368423,280.795990 
	C63.238445,282.962769 60.354771,283.152863 58.055416,280.479584 
	C56.979664,279.228912 56.032440,277.867706 54.741531,276.335114 
z"/>
<path fill="#3D474F" opacity="1.000000" stroke="none" 
	d="
M165.273956,269.196747 
	C171.109619,262.714447 176.609924,256.413788 182.370209,250.360519 
	C184.954132,247.645203 185.886658,245.426559 182.977188,242.325363 
	C175.883728,234.764435 169.274521,226.720673 161.850998,219.508850 
	C157.540619,215.321335 161.764984,213.119644 163.240845,210.839249 
	C163.958252,209.730789 168.535110,209.535172 169.829391,210.672958 
	C174.269333,214.575882 178.063873,219.220963 182.041595,223.639709 
	C187.237762,229.412033 192.102829,235.514221 197.629807,240.945908 
	C201.416046,244.666840 200.227661,247.666855 197.584793,250.790283 
	C194.268021,254.710129 190.633911,258.359558 187.210144,262.191284 
	C182.385162,267.591125 177.614578,273.039886 172.845352,278.489258 
	C169.313217,282.525177 166.523514,283.064850 163.076508,280.309631 
	C158.623444,276.750275 158.760178,275.997833 165.273956,269.196747 
z"/>
<path fill="#3B454C" opacity="1.000000" stroke="none" 
	d="
M406.067108,235.214752 
	C405.719696,232.665100 405.885773,230.268082 404.865784,228.593506 
	C403.924133,227.047562 401.094727,224.988770 400.181641,225.425262 
	C398.115814,226.412827 395.614685,228.614365 395.271881,230.654999 
	C394.471802,235.418091 394.453033,240.408813 394.846100,245.248184 
	C395.220703,249.860275 394.033447,251.555557 389.380280,250.111786 
	C388.539825,249.850998 387.481018,250.293961 386.185242,250.453629 
	C386.185242,240.536514 386.143005,230.892426 386.205200,221.249023 
	C386.231567,217.159363 389.555908,217.567673 391.563843,218.481781 
	C394.649872,219.886658 397.028290,219.114395 400.011017,218.377655 
	C402.786530,217.692123 406.346832,218.175262 408.965088,219.409439 
	C411.754791,220.724442 413.728149,220.713226 416.310150,219.318329 
	C424.564545,214.859039 433.802032,220.323929 433.968811,229.727982 
	C434.089142,236.512131 433.992249,243.300140 433.992249,250.705688 
	C431.214447,250.548294 428.434265,250.390778 426.163452,250.262100 
	C425.785156,243.715073 425.814789,237.244080 424.823914,230.933319 
	C424.485077,228.775116 421.586853,227.018784 419.858002,225.078857 
	C418.240723,226.900681 415.509247,228.564957 415.225067,230.575226 
	C414.508942,235.640991 414.935181,240.863602 414.817627,246.021423 
	C414.781403,247.610291 414.467834,249.192841 414.286957,250.729843 
	C406.035522,250.567795 406.040100,250.567810 406.074249,243.180695 
	C406.085785,240.681366 406.067810,238.181885 406.067108,235.214752 
z"/>
<path fill="#3B444B" opacity="1.000000" stroke="none" 
	d="
M244.306488,270.875366 
	C247.625763,279.735291 246.355148,287.779572 240.373352,294.291931 
	C237.729263,297.170532 233.240204,299.242767 229.308029,299.843323 
	C223.303848,300.760376 217.056244,300.083740 210.102768,300.083740 
	C210.102768,296.947632 210.100922,294.028809 210.103119,291.109985 
	C210.110123,281.802124 210.304642,272.488953 210.040756,263.188812 
	C209.925064,259.111145 211.489471,257.901276 215.263824,258.115234 
	C219.075073,258.331329 222.912125,258.316315 226.728760,258.167999 
	C235.524460,257.826111 240.046555,261.386383 244.306488,270.875366 
M234.565094,270.128021 
	C233.452118,269.141174 232.480927,267.604248 231.198746,267.273712 
	C227.764389,266.388367 224.063461,265.272736 220.756348,265.862671 
	C219.640106,266.061768 219.003067,271.081360 218.826248,273.939880 
	C218.519073,278.905853 218.601135,283.910950 218.830627,288.885315 
	C218.893936,290.257782 220.044220,292.729218 220.717575,292.736694 
	C224.875687,292.782959 229.244537,293.613159 232.695084,289.859894 
	C237.686554,284.430511 238.554901,278.749542 234.565094,270.128021 
z"/>
<path fill="#3B454C" opacity="1.000000" stroke="none" 
	d="
M245.971558,223.003662 
	C245.971436,232.237244 245.971436,240.971863 245.971436,250.282730 
	C244.139252,250.200256 241.493286,250.081161 238.580093,249.950027 
	C238.123978,245.500198 237.226288,241.252594 237.396759,237.048309 
	C237.546387,233.357895 235.710022,232.881989 233.006561,232.865311 
	C229.572922,232.844131 226.134293,233.059021 222.705872,232.939972 
	C219.860489,232.841171 218.881500,234.045944 218.963120,236.794357 
	C219.097626,241.323441 218.999634,245.859436 218.999634,250.511337 
	C216.075317,250.238358 213.334579,249.982513 210.137405,249.684067 
	C210.137405,236.423798 210.038666,223.152908 210.343063,209.891281 
	C210.365082,208.931244 213.304535,207.363815 214.916733,207.326080 
	C216.227066,207.295410 218.541336,208.982132 218.733566,210.177017 
	C219.282120,213.586380 219.060516,217.135330 218.980042,220.625626 
	C218.906067,223.833511 220.373444,225.191849 223.515930,225.024734 
	C225.174438,224.936508 226.853043,225.142960 228.503326,224.997726 
	C240.135269,223.974136 238.574799,223.396606 237.521225,214.725189 
	C237.311279,212.997253 237.358871,210.808258 238.258698,209.499420 
	C239.111816,208.258469 241.221893,207.382233 242.812149,207.328964 
	C243.815735,207.295380 245.683197,208.996857 245.775192,210.042236 
	C246.138519,214.170166 245.953354,218.346375 245.971558,223.003662 
z"/>
<path fill="#39434A" opacity="1.000000" stroke="none" 
	d="
M333.417908,218.116089 
	C344.408630,218.032715 345.768799,219.079239 346.775421,230.152237 
	C347.318726,236.128922 347.179932,242.192566 346.886292,248.194351 
	C346.840454,249.131424 344.012726,250.923141 343.011932,250.607224 
	C341.181427,250.029358 338.575867,248.327240 338.377991,246.820251 
	C337.754639,242.073105 338.064392,237.198929 338.078400,232.374084 
	C338.088867,228.768585 337.457794,225.495071 333.097748,225.118149 
	C328.336945,224.706573 326.589691,228.281921 326.092255,231.970551 
	C325.496368,236.389297 325.859253,240.935806 325.778473,245.426453 
	C325.752228,246.885361 325.636810,248.342651 325.565216,249.741104 
	C317.351562,250.703033 316.846466,250.269241 316.893372,242.747757 
	C316.930481,236.799133 316.939514,230.850296 316.948639,224.901535 
	C316.957489,219.160934 316.950531,213.420319 316.950531,207.821320 
	C325.343658,206.198471 325.744751,206.511749 325.813568,213.883636 
	C325.830322,215.679428 325.974426,217.474045 326.096954,220.044968 
	C328.750793,219.309433 330.868103,218.722595 333.417908,218.116089 
z"/>
<path fill="#3C454C" opacity="1.000000" stroke="none" 
	d="
M266.012207,218.059326 
	C277.534241,218.124619 280.917358,221.534622 280.959747,232.682953 
	C280.974884,236.669708 280.993988,240.656433 281.004700,244.643204 
	C281.018127,249.640060 278.295929,251.574036 273.540710,250.352295 
	C271.852692,249.918594 269.925354,250.456116 268.106262,250.484772 
	C263.869202,250.551575 259.532776,252.634918 255.506317,249.236526 
	C251.187637,245.591476 251.116333,241.173950 253.200455,236.714462 
	C254.091095,234.808746 256.333496,232.949127 258.360809,232.282455 
	C262.551270,230.904526 267.009399,230.340515 272.964996,229.109467 
	C270.368042,226.977036 268.717682,224.760254 266.643036,224.242096 
	C265.402405,223.932205 263.639069,226.630966 261.857727,227.354462 
	C259.211548,228.429199 256.341278,228.952271 253.371094,229.763474 
	C253.069611,221.697388 257.200775,218.084167 266.012207,218.059326 
M264.568115,244.156479 
	C265.549835,244.025726 266.859528,244.245346 267.447968,243.694489 
	C268.866150,242.366882 270.015198,240.720413 271.030029,239.054642 
	C271.108612,238.925659 269.124023,236.873856 268.381866,237.033508 
	C265.992523,237.547516 263.736023,238.678802 261.428284,239.572067 
	C262.205719,241.074783 262.983154,242.577484 264.568115,244.156479 
z"/>
<path fill="#3A444B" opacity="1.000000" stroke="none" 
	d="
M355.283142,228.984558 
	C350.723877,225.572586 354.299194,222.814362 356.280334,221.153030 
	C362.194855,216.193283 369.111481,217.409531 375.590057,219.919968 
	C380.270355,221.733582 380.332153,226.687531 380.734131,230.788956 
	C381.202637,235.569336 380.931885,240.425903 380.914215,245.249176 
	C380.896423,250.104187 378.302399,251.640503 373.553162,250.152863 
	C371.847717,249.618683 369.555969,249.589249 367.963776,250.298767 
	C361.301453,253.267670 353.185303,249.772018 351.263672,242.804581 
	C350.222260,239.028656 354.254700,232.921265 358.467957,232.029205 
	C362.790985,231.113937 367.137604,230.310089 371.490814,229.454132 
	C369.703796,223.762390 366.957153,223.078110 362.835175,226.441315 
	C360.987335,227.948944 358.104187,228.187668 355.283142,228.984558 
M361.035187,240.684418 
	C361.551880,241.650543 362.156525,243.483566 362.570984,243.441544 
	C365.180115,243.176895 367.942566,242.890030 370.230591,241.755753 
	C371.132599,241.308594 370.945221,238.664001 371.253906,237.020050 
	C368.777679,237.061554 366.255219,236.841766 363.846985,237.267700 
	C362.822662,237.448853 362.037415,238.981796 361.035187,240.684418 
z"/>
<path fill="#3A444A" opacity="1.000000" stroke="none" 
	d="
M265.494232,287.011536 
	C263.222504,287.067413 261.360931,286.976440 259.599731,287.353943 
	C259.343353,287.408905 259.091309,290.472809 259.654572,290.820526 
	C261.588470,292.014435 264.098145,293.637634 266.000763,293.240448 
	C270.133514,292.377716 273.610748,288.371948 278.454865,290.803497 
	C276.364868,301.445740 266.208832,302.962860 257.874756,299.352203 
	C250.838608,296.303894 248.012970,287.210693 250.561523,278.485626 
	C251.945648,273.747040 253.689178,269.274384 259.487122,268.532806 
	C265.816467,267.723206 272.545288,266.763916 276.458313,273.262329 
	C278.367065,276.432159 278.728943,280.617523 279.316925,284.416565 
	C279.415894,285.055847 277.165344,286.649597 275.885284,286.795959 
	C272.603638,287.171295 269.257202,286.980194 265.494232,287.011536 
M269.932556,278.137604 
	C267.092651,274.731659 263.371582,273.868225 260.770599,276.203552 
	C260.034760,276.864227 259.313721,278.253479 259.527832,279.057892 
	C259.738098,279.847778 261.240814,280.936859 262.011047,280.818542 
	C264.738434,280.399506 267.395111,279.520020 269.932556,278.137604 
z"/>
<path fill="#3B454B" opacity="1.000000" stroke="none" 
	d="
M285.926270,230.986404 
	C284.443268,223.217545 288.085663,218.253571 295.456146,218.056839 
	C299.017365,217.961792 302.723419,218.148026 306.139343,219.053757 
	C310.440338,220.194138 312.523865,223.374924 311.582458,228.298157 
	C308.014313,229.234543 304.757629,230.217896 302.209320,225.907883 
	C300.624329,223.227188 297.796051,222.976974 295.385895,225.230286 
	C294.676880,225.893158 294.261963,227.292191 294.384705,228.269394 
	C294.461792,228.883163 295.722107,229.584015 296.570496,229.822205 
	C299.411713,230.619873 302.276855,231.421646 305.187225,231.863571 
	C310.089966,232.608017 312.269196,235.936813 312.983948,240.224976 
	C313.672363,244.354889 311.107666,247.042206 307.730042,249.024551 
	C299.174194,254.045990 287.875397,250.850296 284.213898,242.198715 
	C287.538788,239.934357 290.556427,238.457733 294.029999,242.414444 
	C297.226898,246.055969 300.699585,245.057083 304.854431,240.966049 
	C302.413635,239.754166 300.538330,238.557297 298.492584,237.861633 
	C293.976715,236.325974 288.427307,236.883438 285.926270,230.986404 
z"/>
<path fill="#3B454B" opacity="1.000000" stroke="none" 
	d="
M280.836670,271.424072 
	C279.902954,267.409119 282.808411,268.445007 284.456940,268.281586 
	C286.786591,268.050629 288.937317,268.107025 289.869385,271.212463 
	C291.560120,276.845520 293.685547,282.348145 296.903473,288.037933 
	C299.178619,281.661896 301.453766,275.285858 303.860229,268.541870 
	C306.320587,268.541870 309.086700,268.541870 312.755981,268.541870 
	C310.524017,273.965942 308.304657,278.910339 306.451691,283.988434 
	C304.588684,289.094086 303.090302,294.332825 301.455902,299.439026 
	C292.093658,301.053497 291.816376,301.097687 288.395111,292.659454 
	C285.622223,285.820374 283.416260,278.751465 280.836670,271.424072 
z"/>
<path fill="#7BB3E8" opacity="1.000000" stroke="none" 
	d="
M104.334137,251.852509 
	C112.368950,251.633774 120.879417,251.509018 129.752747,251.609070 
	C121.680328,251.871429 113.245064,251.908966 104.334137,251.852509 
z"/>
<path fill="#010101" opacity="1.000000" stroke="none" 
	d="
M234.819183,270.422607 
	C238.554901,278.749542 237.686554,284.430511 232.695084,289.859894 
	C229.244537,293.613159 224.875687,292.782959 220.717575,292.736694 
	C220.044220,292.729218 218.893936,290.257782 218.830627,288.885315 
	C218.601135,283.910950 218.519073,278.905853 218.826248,273.939880 
	C219.003067,271.081360 219.640106,266.061768 220.756348,265.862671 
	C224.063461,265.272736 227.764389,266.388367 231.198746,267.273712 
	C232.480927,267.604248 233.452118,269.141174 234.819183,270.422607 
z"/>
<path fill="#000000" opacity="1.000000" stroke="none" 
	d="
M264.164368,244.118347 
	C262.983154,242.577484 262.205719,241.074783 261.428284,239.572083 
	C263.736023,238.678802 265.992523,237.547516 268.381866,237.033508 
	C269.124023,236.873856 271.108612,238.925659 271.030029,239.054642 
	C270.015198,240.720413 268.866150,242.366882 267.447968,243.694489 
	C266.859528,244.245346 265.549835,244.025726 264.164368,244.118347 
z"/>
<path fill="#000000" opacity="1.000000" stroke="none" 
	d="
M361.089355,240.292419 
	C362.037415,238.981796 362.822662,237.448853 363.846985,237.267700 
	C366.255219,236.841766 368.777679,237.061554 371.253906,237.020050 
	C370.945221,238.664001 371.132599,241.308594 370.230591,241.755753 
	C367.942566,242.890030 365.180115,243.176895 362.570984,243.441544 
	C362.156525,243.483566 361.551880,241.650543 361.089355,240.292419 
z"/>
<path fill="#010101" opacity="1.000000" stroke="none" 
	d="
M270.005554,278.476318 
	C267.395111,279.520020 264.738434,280.399506 262.011047,280.818542 
	C261.240814,280.936859 259.738098,279.847778 259.527832,279.057892 
	C259.313721,278.253479 260.034760,276.864227 260.770599,276.203552 
	C263.371582,273.868225 267.092651,274.731659 270.005554,278.476318 
z"/>
</svg>